# xmcd
#
# Track frame offsets: 
#        182
#        29547
#        42977
#        55887
#        67920
#        101247
#        148690
#        175752
#        234062
#
# Disc length: 3826 seconds
#
# Revision: 1
# Processed by: cddbd v1.5.2PL0 Copyright (c) Steve Scherf et al.
# Submitted via: ExactAudioCopy v0.99pb1
#
DISCID=750ef009
DTITLE=Dexter Gordon - The Chase Les Génies du Jazz IV 08 
DYEAR=1990
DGENRE=Jazz
TTITLE0=The Chase
TTITLE1=Ghost of a Chance
TTITLE2=Iridescence
TTITLE3=Mischievous Lady
TTITLE4=The Duel
TTITLE5=The Rainbow People
TTITLE6=Momatta
TTITLE7=Oui dot (Why Not)
TTITLE8=Bon Macha
EXTD=
EXTT0=
EXTT1=
EXTT2=
EXTT3=
EXTT4=
EXTT5=
EXTT6=
EXTT7=
EXTT8=
PLAYORDER=
